<?xml version="1.0" encoding="UTF-8" standalone="no"?>
<!-- Created with Inkscape (http://www.inkscape.org/) -->

<svg
   id="svg2"
   sodipodi:docname="RosaDeiVenti.svg"
   viewBox="0 0 744.09 1052.4"
   version="1.1"
   inkscape:version="1.3.2 (091e20e, 2023-11-25, custom)"
   inkscape:export-filename="RosaDeiVenti.png"
   inkscape:export-xdpi="39.209999"
   inkscape:export-ydpi="39.209999"
   xmlns:inkscape="http://www.inkscape.org/namespaces/inkscape"
   xmlns:sodipodi="http://sodipodi.sourceforge.net/DTD/sodipodi-0.dtd"
   xmlns="http://www.w3.org/2000/svg"
   xmlns:svg="http://www.w3.org/2000/svg"
   xmlns:rdf="http://www.w3.org/1999/02/22-rdf-syntax-ns#"
   xmlns:cc="http://creativecommons.org/ns#"
   xmlns:dc="http://purl.org/dc/elements/1.1/">
  <defs
     id="defs1" />
  <sodipodi:namedview
     id="base"
     bordercolor="#666666"
     inkscape:pageshadow="2"
     inkscape:window-y="-8"
     pagecolor="#ffffff"
     inkscape:window-height="1057"
     inkscape:window-maximized="1"
     inkscape:zoom="4"
     inkscape:window-x="-8"
     showgrid="false"
     borderopacity="1.0"
     inkscape:current-layer="layer1"
     inkscape:cx="379.5"
     inkscape:cy="620.125"
     inkscape:window-width="1920"
     inkscape:pageopacity="0.0"
     inkscape:document-units="px"
     inkscape:showpageshadow="0"
     inkscape:pagecheckerboard="0"
     inkscape:deskcolor="#505050" />
  <g
     id="layer1"
     inkscape:label="Layer 1"
     inkscape:groupmode="layer">
    <g
       id="g4436"
       transform="matrix(.14581 0 0 .14581 963.22 1159)">
      <path
         id="path3254-2-2-7-1"
         style="block-progression:tb;text-indent:0;color:#000000;text-transform:none;fill:#000000"
         inkscape:connector-curvature="0"
         d="m-4122.5-6166.1-272.97 1313.9-492.72-323.25-10.375 10.344 322.69 491.94-1311.3 272.34v23.5l1310.8 272.34-324.78 495.09 10.344 10.344 493.03-323.38 272.88 1313.8h23.5l273.03-1314.1 492.75 323.22 10.344-10.344-322.81-492.12 1311.2-272.38v-23.5l-1310.5-272.28 324.53-494.69-10.375-10.344-492.91 323.31-272.88-1313.7h-23.5zm-0.2188 119.03v1373.8 254.84l-280.16-280.25 28.969-139.38 251.19-1209zm736.97 923.69-411.25 411.25-25.875-124.53 437.12-286.72zm-1460.5 10.781 410.31 410.31-124.25 25.812-286.06-436.12zm1042 433.81 142.66 29.656 1205.7 250.5h-1370-258.53l280.22-280.16zm-1963.9 301.66h1370.3 258.5l-280.22 280.22-142.69-29.656-1205.9-250.56zm1666.9 20.094 280.22 280.22-28.969 139.38-251.25 1209.2v-1374.1-254.75zm437.38 257.75 286.19 436.34-410.53-410.53 124.34-25.812zm-763.09 36.062 25.844 124.56-437.19 286.78 411.34-411.34z" />
      <g
         id="text4344"
         style="fill:#000000">
        <path
           id="path4434"
           inkscape:connector-curvature="0"
           d="m-3979.5-6530.1c-23.317 2.1687-34.975 39.275-34.975 111.32v133.09h-15.617l-158.28-222.83v67.196c0 32.965 1.1248 57.581 3.3745 73.848 4.8321 35.637 15.491 54.49 31.978 56.561v16.434h-91.524v-16.348c23.195-3.5652 34.792-46.361 34.792-128.39v-65.942c0-9.6561-1.6771-16.108-5.0312-19.357-3.3542-3.2483-11.236-5.0187-23.645-5.3114v-16.872h69.218l132.41 186.71v-52.87c-0.0002-75.764-11.594-114.86-34.78-117.28v-16.568h92.084z" />
      </g>
      <g
         id="text4344-1"
         style="fill:#000000">
        <path
           id="path4431"
           inkscape:connector-curvature="0"
           d="m-1997.1-4399.2c-0.0003 25.891-7.34 50.6-22.019 74.128-14.68 23.528-33.665 41.212-56.957 53.053-20.994 10.688-43.108 16.032-66.344 16.032-33.939 0.0001-62.378-11.467-85.317-34.402s-34.408-51.242-34.408-84.921c-0.0001-38.17 14.129-71.71 42.388-100.62 28.258-28.908 61.554-43.362 99.887-43.362 44.213 0.0003 78.688 17.896 103.43 53.686 12.896 18.606 19.345 40.741 19.345 66.404zm-40.871 33.635c-0.0002-22.87-4.7106-44.343-14.131-64.419-10.396-21.911-24.657-38.097-42.783-48.558-17.648-10.119-33.939-15.179-48.874-15.179-23.723 0.0003-42.784 8.41-57.183 25.229-13.555 15.967-20.332 36.323-20.332 61.069-0.0001 33.249 9.4979 62.145 28.494 86.688 20.62 26.63 46.771 39.945 78.453 39.945 22.439 0 40.964-8.4503 55.574-25.351 13.855-16.275 20.782-36.083 20.783-59.424z" />
      </g>
      <g
         id="text4344-8"
         style="fill:#000000">
        <path
           id="path4428"
           inkscape:connector-curvature="0"
           d="m-4034.5-2329.2c-0.0002 22.602-10.432 42.048-31.296 58.34-19.012 14.919-40.079 22.378-63.2 22.378-17.339 0-37.496-4.4383-60.472-13.315v-75.322h22.147c0 19.41 4.6779 35.356 14.034 47.839 10.046 13.465 22.858 20.198 38.434 20.198 12.32 0 22.33-3.5896 30.029-10.769 7.6989-7.1792 11.548-16.941 11.549-29.286-0.0002-12.816-5.9856-24.855-17.956-36.12-5.0597-4.6778-17.177-13.392-36.351-26.143-16.446-10.923-28.685-19.816-36.717-26.679-5.9206-5.0676-10.684-11.488-14.29-19.26-3.3054-6.9192-4.9581-14.168-4.9581-21.745 0-21.221 9.8837-39.076 29.651-53.565 17.534-12.758 37.176-19.138 58.925-19.138 11.76 0.0003 28.283 3.6671 49.569 11v66.551h-22.305c-0.9991-16.892-5.3156-30.333-12.95-40.323-8.3001-10.956-18.935-16.433-31.905-16.434-9.429 0.0002-17.319 2.8387-23.67 8.5152-6.3266 5.8883-9.4898 13.535-9.4898 22.939 0 11.971 6.895 24.141 20.685 36.51 5.3113 4.8081 17.899 13.859 37.764 27.154 17.851 11.898 29.541 20.677 35.072 26.338 11.8 11.947 17.7 25.392 17.701 40.335z" />
      </g>
      <g
         id="text4344-7"
         style="fill:#000000">
        <path
           id="path4425"
           inkscape:connector-curvature="0"
           d="m-5962.7-4501.3c-14.741 0.2602-28.799 17.181-42.174 50.763l-77.417 193.55h-17.627l-53.236-161.49c-9.1855 20.669-17.599 40.684-25.241 60.045l-39.957 101.44h-17.274l-65.284-192.59c-8.3407-24.762-16.19-40.233-23.548-46.414-3.8496-3.1914-8.8727-5.0472-15.069-5.5672v-16.641h75.261v16.848c-4.7104 0.1302-7.0656 0.9748-7.0656 2.5339 0 0.7393 0.1665 1.6042 0.4995 2.5947l56.854 176.58 27.605-77.758c9.1201-23.008 13.68-44.838 13.68-65.491-0.0001-24.559-10.704-37.411-32.112-38.556v-16.75h76.235v16.872c-5.4822 0.1302-8.2231 0.9017-8.2229 2.3145-0.0002 0.8693 0.1663 1.7992 0.4994 2.7897l57.572 176.58 34.719-96.299c11.792-29.862 17.688-50.99 17.688-63.383-0.0003-8.8765-2.0712-14.744-6.2128-17.603-3.728-2.6392-11.975-4.1051-24.742-4.3977v-16.872h94.569z" />
      </g>
    </g>
    <path
       style="fill:#ff0000;stroke:#000000;stroke-width:1.88976"
       d="m 341.62801,493.62832 -19.872,-19.89084 19.872,-95.68915 19.87199,-95.68916 0.25809,57.49329 c 0.14195,31.62131 0.14195,83.63231 0,115.58 L 361.5,513.51916 Z"
       id="path1" />
    <path
       style="fill:#e3dedb;stroke:#000000;stroke-width:1.88976"
       d="M 224.41138,541.60914 130.32276,522 l 56.83862,-0.25819 c 31.26124,-0.142 82.49293,-0.142 113.84821,0 L 358.01918,522 338.25959,541.60914 318.5,561.21827 Z"
       id="path2" />
    <path
       style="fill:#e3dedb;stroke:#000000;stroke-width:1.88976"
       d="m 388.6042,497.40198 20.09802,-20.09803 94.89889,19.65806 c 52.19439,10.81193 95.34889,19.82051 95.89889,20.01908 0.55,0.19856 -51.19861,0.39654 -114.99691,0.43996 L 368.50617,517.5 Z"
       id="path3" />
    <path
       style="fill:#e3dedb;stroke:#000000;stroke-width:1.88976"
       d="M 366.116,639.00938 366,525.01875 l 19.79851,19.77995 19.7985,19.77994 -19.27026,92.71068 C 375.7281,708.28019 366.87097,750.675 366.64424,751.5 366.41751,752.325 366.1798,701.70422 366.116,639.00938 Z"
       id="path4" />
    <path
       style="fill:#e3dedb;stroke:#000000;stroke-width:1.88976"
       d="M 291.00708,593.99073 317.5,567.48146 l 1.6764,8.25927 c 1.28265,6.31937 1.40009,8.5211 0.5,9.37404 -1.83955,1.74317 -53.57163,35.38523 -54.41259,35.38523 -0.41231,0 11.17216,-11.92917 25.74327,-26.50927 z"
       id="path5" />
    <path
       style="fill:#e3dedb;stroke:#000000;stroke-width:1.88976"
       d="M 281,449.86092 C 271.375,435.21728 263.33812,422.733 263.14026,422.11806 262.9424,421.50313 274.53847,432.7 288.90929,447 l 26.12877,26 -4.91038,1.11833 c -2.70071,0.61508 -6.42178,1.39936 -8.26903,1.74286 L 298.5,476.48572 Z"
       id="path6" />
    <path
       style="fill:#e3dedb;stroke:#000000;stroke-width:1.88976"
       d="M 409.60338,469.44826 C 409.33608,468.65172 408.50023,464.85 407.74594,461 l -1.37144,-7 27.92866,-18.30075 c 15.36077,-10.06542 28.08435,-18.14508 28.27462,-17.95481 0.19027,0.19027 -11.54178,12.22733 -26.07123,26.74901 -17.34697,17.33771 -26.58403,25.90581 -26.90317,24.95481 z"
       id="path7" />
    <path
       style="fill:#e3dedb;stroke:#000000;stroke-width:1.88976"
       d="m 438,591 c -13.97513,-13.9832 -25.20473,-25.59763 -24.95467,-25.80985 0.25007,-0.21223 3.88599,-1.05254 8.07983,-1.86736 l 7.62515,-1.4815 17.67831,26.94256 c 9.72307,14.8184 17.52135,27.09951 17.32951,27.29135 C 463.56629,616.26704 451.97513,604.9832 438,591 Z"
       id="path8" />
    <path
       style="fill:#ffffff;stroke:#000000;stroke-width:1.88977"
       d="m 288.88148,459.92714 c -15.56022,-23.7238 -20.31861,-31.07334 -20.19694,-31.19501 0.0614,-0.0614 10.01681,9.70497 22.12308,21.7031 12.96597,12.85014 21.89448,21.88161 21.72689,21.97743 -0.30229,0.17282 -8.75953,2.0274 -11.28451,2.47457 -0.825,0.14611 -1.66875,0.31096 -1.875,0.36635 -0.26283,0.0706 -3.40168,-4.5139 -10.49352,-15.32644 z"
       id="path9" />
    <path
       style="fill:#ffffff;stroke:#000000;stroke-width:1.88976"
       d="m 264.81273,422.16914 c -0.44674,-0.41651 -0.97116,-0.83947 -1.16537,-0.9399 -0.45945,-0.23758 -1.01108,-0.1144 -1.30704,0.29189 l -0.22977,0.31543 -2.34992,-3.58197 c -1.29245,-1.97009 -2.32732,-3.60457 -2.29971,-3.63217 0.0276,-0.0276 1.93175,1.83199 4.23144,4.13244 2.29968,2.30045 4.12531,4.18015 4.05694,4.17711 -0.0684,-0.003 -0.48982,-0.34632 -0.93657,-0.76283 z"
       id="path10" />
    <path
       style="fill:#ffffff;stroke:#000000;stroke-width:1.88976"
       d=""
       id="path11" />
    <path
       style="fill:#ffffff;stroke:#000000;stroke-width:1.88976"
       d="m 267.80083,427.80706 c -0.0924,-0.14459 -0.161,-0.26981 -0.15254,-0.27826 0.008,-0.008 0.11814,0.0809 0.24374,0.19854 0.22702,0.21266 0.24479,0.25586 0.12967,0.31528 -0.0434,0.0224 -0.0832,-0.0201 -0.22087,-0.23556 z"
       id="path12" />
    <path
       style="fill:#ffffff;stroke:#000000;stroke-width:1.88976"
       d=""
       id="path13" />
    <path
       style="fill:#ffffff;stroke:#000000;stroke-width:1.88977"
       d="M 229.84923,541.58592 143.19845,523.5 l 14.90077,-0.30388 c 21.15908,-0.43151 137.31651,-0.50946 169.60864,-0.11382 l 27.12244,0.33231 -18.16258,18.16769 c -12.28576,12.28922 -18.48698,18.15506 -19.16515,18.12862 -0.55141,-0.0215 -39.99542,-8.17774 -87.65334,-18.125 z"
       id="path14" />
    <path
       style="fill:#ffffff;stroke:#000000;stroke-width:1.88977"
       d="m 410.09388,466.62597 c -0.79752,-3.38848 -2.40037,-11.98428 -2.25899,-12.11456 0.30588,-0.28186 37.11923,-24.36426 41.83406,-27.36683 2.56792,-1.63534 4.7633,-2.879 4.87862,-2.76368 0.27392,0.27392 -38.27428,38.47383 -41.62112,41.24507 -2.47386,2.0484 -2.57722,2.08489 -2.83257,1 z"
       id="path15" />
    <path
       style="fill:#ffffff;stroke:#000000;stroke-width:1.88977"
       d="m 390.33271,497.41894 18.83106,-18.83106 66.91812,13.87458 c 122.87114,25.4757 111.44025,22.99086 107.41811,23.35044 -1.925,0.17209 -50.41212,0.34084 -107.74917,0.375 L 371.50166,516.25 Z"
       id="path16" />
    <path
       style="fill:#ffffff;stroke:#000000;stroke-width:1.88976"
       d="m 272.67805,614.03439 c 1.55797,-1.76838 44.04753,-44.40029 44.14996,-44.29786 0.1229,0.12291 1.40778,6.36234 1.90453,9.2485 0.24078,1.39897 0.43778,3.13 0.43778,3.84673 v 1.30316 l -0.7513,0.61027 c -0.82661,0.67145 -11.72138,7.95424 -19.48963,13.02819 -13.26591,8.66481 -26.6544,17.28477 -27.11651,17.45852 -0.15613,0.0587 0.2332,-0.48018 0.86517,-1.19751 z"
       id="path17" />
    <path
       style="fill:#ffffff;stroke:#000000;stroke-width:1.88977"
       d="m 436.00204,587.1923 c -14.93105,-15.04577 -20.70524,-21.17078 -20.20394,-21.43142 0.38604,-0.20072 3.26371,-0.86544 6.39481,-1.47714 4.72386,-0.92288 5.80014,-0.99913 6.32282,-0.44797 0.34645,0.36533 5.55811,8.20173 11.58146,17.41423 16.07583,24.58741 17.3036,26.51588 17.04571,26.77377 -0.12926,0.12926 -9.64265,-9.2449 -21.14086,-20.83147 z"
       id="path18" />
    <path
       style="fill:#ffffff;stroke:#000000;stroke-width:1.88977"
       d="m 367.58433,725.49991 c -0.18281,-7.69995 -0.33283,-55.28627 -0.33336,-105.74737 l -9.7e-4,-91.74747 18.50892,18.49746 c 16.23716,16.22711 18.47813,18.65089 18.25802,19.74747 -1.05932,5.27734 -35.82662,172.36156 -35.94624,172.74991 -0.0847,0.27495 -0.30355,-5.80005 -0.48637,-13.5 z"
       id="path19" />
  </g>
  <metadata
     id="metadata1">
    <rdf:RDF>
      <cc:Work>
        <dc:format>image/svg+xml</dc:format>
        <dc:type
           rdf:resource="http://purl.org/dc/dcmitype/StillImage" />
        <cc:license
           rdf:resource="http://creativecommons.org/licenses/publicdomain/" />
        <dc:publisher>
          <cc:Agent
             rdf:about="http://openclipart.org/">
            <dc:title>Openclipart</dc:title>
          </cc:Agent>
        </dc:publisher>
        <dc:title>Simple Wind Rose</dc:title>
        <dc:date>2012-12-08T03:07:14</dc:date>
        <dc:description />
        <dc:source>https://openclipart.org/detail/173629/simple-wind-rose-by-binleii-173629</dc:source>
        <dc:creator>
          <cc:Agent>
            <dc:title>binleii</dc:title>
          </cc:Agent>
        </dc:creator>
        <dc:subject>
          <rdf:Bag>
            <rdf:li>Compass</rdf:li>
            <rdf:li>Kompass</rdf:li>
            <rdf:li>Wind Rose</rdf:li>
            <rdf:li>Windrose</rdf:li>
          </rdf:Bag>
        </dc:subject>
      </cc:Work>
      <cc:License
         rdf:about="http://creativecommons.org/licenses/publicdomain/">
        <cc:permits
           rdf:resource="http://creativecommons.org/ns#Reproduction" />
        <cc:permits
           rdf:resource="http://creativecommons.org/ns#Distribution" />
        <cc:permits
           rdf:resource="http://creativecommons.org/ns#DerivativeWorks" />
      </cc:License>
    </rdf:RDF>
  </metadata>
</svg>
